<svg width="24" height="24" viewBox="0 0 24 24" fill="none" xmlns="http://www.w3.org/2000/svg">
<circle cx="12" cy="12" r="11" fill="#FAC900" stroke="white" stroke-width="2"/>
<path fill-rule="evenodd" clip-rule="evenodd" d="M11.3327 14C11.3327 14.3681 11.6312 14.6666 11.9993 14.6666C12.3675 14.6666 12.666 14.3681 12.666 14C12.5668 13.1961 12.9243 12.4041 13.5927 11.9466C14.6784 11.5454 15.3813 10.4897 15.3327 9.33328C15.2361 7.77067 13.8958 6.57931 12.3327 6.66662H11.666C10.1029 6.57931 8.76257 7.77067 8.66602 9.33328C8.66602 9.70147 8.96449 9.99995 9.33268 9.99995C9.70087 9.99995 9.99935 9.70147 9.99935 9.33328C10.1036 8.51166 10.8415 7.92134 11.666 7.99995H12.3327C13.1687 7.92235 13.9117 8.53158 13.9993 9.36662C14.0333 9.95881 13.6719 10.5022 13.1127 10.7H13.0527C11.88 11.3657 11.2067 12.6573 11.3327 14ZM11.3327 16.6666C11.3327 17.0348 11.6312 17.3333 11.9993 17.3333C12.3675 17.3333 12.666 17.0348 12.666 16.6666C12.666 16.2984 12.3675 16 11.9993 16C11.6312 16 11.3327 16.2984 11.3327 16.6666Z" fill="#171717"/>
</svg>
